<?xml version="1.0" encoding="utf-8" ?><svg xmlns="http://www.w3.org/2000/svg" xmlns:xlink="http://www.w3.org/1999/xlink" width="4096" height="4096" viewBox="0 0 4096 4096"><path fill="#2F222C" d="M1142.84 2535.52C1133.96 2514.64 1121.95 2491.95 1112.75 2470.57C1053.75 2333.49 1023.07 2190.9 1028.04 2041.41C1029.45 1999.03 1027.09 1954.01 1033.33 1910.98C1043.78 1839.01 1064.28 1752.84 1090.68 1685.3C1190.44 1430.58 1387.37 1225.96 1638.08 1116.53C1881.09 1010.47 2184.43 1008.57 2430.87 1105.79C2681.31 1203.07 2882.83 1395.9 2991.05 1641.82C3031.2 1734.82 3063.72 1854.36 3070.92 1955.43C3079.53 2076.23 3072.33 2213.13 3040.03 2329.72C3027.57 2373.56 3012.83 2416.71 2995.86 2459.01C2986.29 2482.23 2974.86 2504.62 2965.62 2527.86C2962.1 2538.35 2956.85 2546.35 2951.23 2555.79C2799.6 2804.49 2581.16 2984.85 2294.84 3054.34C2028.88 3117.4 1748.78 3073.11 1515.26 2931.06C1366.32 2839.71 1242.89 2712.19 1156.44 2560.36L1142.84 2535.52Z"/><path fill="#C5EAE9" d="M1142.84 2535.52C1133.96 2514.64 1121.95 2491.95 1112.75 2470.57C1053.75 2333.49 1023.07 2190.9 1028.04 2041.41C1029.45 1999.03 1027.09 1954.01 1033.33 1910.98C1043.78 1839.01 1064.28 1752.84 1090.68 1685.3C1190.44 1430.58 1387.37 1225.96 1638.08 1116.53C1881.09 1010.47 2184.43 1008.57 2430.87 1105.79C2681.31 1203.07 2882.83 1395.9 2991.05 1641.82C3031.2 1734.82 3063.72 1854.36 3070.92 1955.43C3079.53 2076.23 3072.33 2213.13 3040.03 2329.72C3027.57 2373.56 3012.83 2416.71 2995.86 2459.01C2986.29 2482.23 2974.86 2504.62 2965.62 2527.86C2944.46 2517.53 2919.66 2510.81 2897.42 2503.07C2832.4 2480.43 2773.15 2466.02 2705.8 2453.14C2745.2 2432.17 2756.29 2401.28 2728.48 2363.94C2746.21 2291.66 2769.75 2220.92 2788.83 2148.87C2798.74 2111.44 2828.19 2039.77 2810.17 2004.63C2788.81 1962.99 2746.17 1968.04 2706.33 1967.36L2604.12 1965.67L2412.55 1962.02C2380.6 1961.57 2346.22 1960.53 2314.34 1962.41C2302.05 1963.13 2288.11 1972.6 2277.82 1979.23C2271.47 1970.22 2264.14 1960.81 2257.47 1951.94C2307.15 1931.41 2350.25 1920.75 2398.83 1891.99C2434.11 1871.1 2463.24 1849.77 2496.86 1826.74C2513.63 1818.64 2537.68 1819.24 2550.21 1803.19C2569.35 1778.68 2558.6 1768.11 2536.83 1753.06C2538.43 1752.28 2540.03 1751.49 2541.62 1750.68C2564.93 1738.75 2597.81 1720.52 2568.53 1693.26C2551.75 1677.64 2541.07 1663.17 2528.8 1643.99C2515.79 1622.82 2509.1 1604.95 2500.48 1581.81C2478.23 1519.63 2456.97 1478.42 2417.26 1425.99C2421.64 1415.19 2412.99 1401.18 2408.25 1390.42C2481.16 1217.14 2425.01 1085.27 2240.37 1219.4C2226.88 1232.29 2209.05 1248.81 2196.88 1262.43C2073.64 1217.9 1948.47 1218.02 1826.17 1266.72L1814.61 1252.82C1775.04 1214.81 1722.57 1177.06 1666.19 1171.9C1635.29 1169.06 1624.76 1184.8 1605.13 1202.46C1572.76 1272.02 1587.56 1341.49 1622.36 1407.06C1606.44 1427.23 1588.59 1451.99 1575.67 1474.23C1562.95 1498.28 1552.8 1518.08 1541.77 1542.95C1531.71 1565.63 1519.2 1597.79 1507.16 1619.02C1489.56 1655.46 1462.29 1683.26 1437.73 1714.35C1451.27 1731.47 1465.18 1736.18 1485.12 1744.28C1471.42 1755.42 1459.27 1765.28 1444.77 1775.49C1513.99 1846.47 1647.34 1906.11 1740.98 1936.29C1690.5 2001.82 1668.24 2084.22 1649.18 2163.26C1547.98 2110.74 1548.19 2111.55 1513.42 2008.43C1487.58 1931.78 1380.2 1890.69 1307.64 1919.83C1186.32 1958.46 1158.67 2078.92 1197.18 2189.89C1225.51 2271.55 1286.08 2357.81 1365.86 2396.41C1391.06 2408.06 1413.63 2415.37 1440.44 2422.33C1353.53 2439.88 1285.37 2462.96 1205.01 2501.91C1186.88 2510.7 1158.09 2523.52 1142.84 2535.52Z"/><path fill="#FAFAF9" d="M2663.67 1492.9C2671.22 1465.8 2681.55 1442.82 2707.75 1428.35C2728.15 1417.13 2752.28 1414.82 2774.44 1421.96C2795 1428.5 2811.94 1443.23 2821.26 1462.69C2832.64 1486.08 2832.74 1511.05 2831.18 1536.36C2850.67 1535.36 2871.1 1533.51 2887.23 1547.31C2896.79 1555.62 2902.66 1567.39 2903.56 1580.03C2904.63 1596.99 2897.4 1610.82 2886.89 1623.59C2870.74 1643.2 2833.29 1643.51 2808.85 1643.75C2744.52 1644.36 2678.67 1643.21 2614.2 1643.57C2588.13 1643.71 2554.24 1642.41 2528.8 1643.99C2515.79 1622.82 2509.1 1604.95 2500.48 1581.81C2505.15 1574.22 2510.3 1566.2 2514.76 1558.55C2536.39 1546.5 2546.67 1544.93 2569.13 1554.01L2573.3 1551.73C2573.81 1542.98 2573.98 1528.94 2575.52 1520.62C2582.53 1482.69 2636.01 1468.71 2663.67 1492.9Z"/><path fill="#FAFAF9" d="M1507.16 1619.02C1491.98 1615.97 1453.46 1617.29 1436.62 1617.28C1391.21 1617.26 1345.46 1618.14 1299.97 1617.69C1281.96 1617.51 1263.07 1616.49 1249.74 1602.31C1243.39 1595.57 1241.01 1587.18 1241.77 1578.08C1242.63 1567.81 1250.81 1551.6 1258.96 1545.41C1283.08 1527.09 1310.68 1530.28 1338.08 1533.14C1328.7 1512.77 1337.99 1477.15 1349.7 1458.95C1362.39 1439.22 1382.62 1425.57 1405.67 1421.18C1457.96 1410.72 1498.45 1442.02 1506.64 1493.63C1522.45 1478.33 1531.6 1476.43 1552.34 1472.66C1560.1 1473.32 1567.88 1473.85 1575.67 1474.23C1562.95 1498.28 1552.8 1518.08 1541.77 1542.95C1531.71 1565.63 1519.2 1597.79 1507.16 1619.02Z"/><path fill="#D0F9F3" d="M1814.61 1252.82C1820.13 1254.36 1821.67 1256.8 1826.35 1260.83C1832.77 1260.53 1830.4 1261.85 1834.57 1258.5L1828.01 1255.2L1827.57 1252.57C1856.19 1246.49 1883.09 1238.87 1911.23 1231.21C1923.91 1227.77 1919 1235.35 1923.48 1234.77C1945.07 1231.96 1967.83 1225.77 1989.21 1223.53C1991.17 1224.84 1993.13 1226.14 1995.09 1227.45C2005.78 1226.43 2021.56 1224.96 2031.79 1224.64C2041.86 1224.32 2054.69 1224.9 2063.78 1226.55C2087.06 1230.79 2119.44 1233.62 2141.65 1239.38C2156.95 1243.35 2174.99 1251.54 2192.54 1256.41C2196.64 1255.59 2228.99 1224.36 2236.92 1217.77L2240.37 1219.4C2226.88 1232.29 2209.05 1248.81 2196.88 1262.43C2073.64 1217.9 1948.47 1218.02 1826.17 1266.72L1814.61 1252.82Z"/><path fill="#D0F9F3" d="M1610.88 1405.85C1603.08 1387.85 1589.64 1359.41 1586.65 1341.14L1590.82 1339.26C1581.56 1299.57 1578.2 1249.52 1596.53 1210.54C1599.51 1204.2 1600.32 1203.65 1605.13 1202.46C1572.76 1272.02 1587.56 1341.49 1622.36 1407.06C1606.44 1427.23 1588.59 1451.99 1575.67 1474.23C1567.88 1473.85 1560.1 1473.32 1552.34 1472.66C1554.5 1472.07 1561.5 1472.72 1564.11 1472.2C1564.2 1472.18 1568.82 1471.01 1569.25 1470.33C1582.44 1449.6 1597.52 1426.09 1610.88 1405.85Z"/><path fill="#C5EAE9" d="M1156.44 2560.36C1175.8 2552.59 1201.46 2538.71 1220.86 2529.33C1251.84 2514.41 1283.49 2500.93 1315.72 2488.94C1429.87 2446.78 1552.12 2428.28 1672.64 2415.37C1733.91 2408.81 1808.99 2402.21 1871.08 2401.76C1873.06 2421.6 1881.49 2447.19 1901.47 2451.89C1940.61 2461.12 2005.05 2458.6 2046.34 2459.36C2162.07 2461.72 2277.81 2463.1 2393.55 2463.52C2501.44 2463.94 2618.72 2458.26 2723.46 2485.78C2752.47 2493.4 2935.79 2541.09 2951.23 2555.79C2799.6 2804.49 2581.16 2984.85 2294.84 3054.34C2028.88 3117.4 1748.78 3073.11 1515.26 2931.06C1366.32 2839.71 1242.89 2712.19 1156.44 2560.36Z"/><path fill="#D0F9F3" d="M2408.25 1390.42C2412.99 1401.18 2421.64 1415.19 2417.26 1425.99L2400.36 1407.27L2408.25 1390.42Z"/><path fill="#FAFAF9" d="M1674.2 1397.47C1720.28 1350.26 1787.65 1313.93 1849.27 1291.08C1966.26 1247.71 2102.19 1249.59 2216.04 1303.08C2323.6 1347.26 2411.11 1444.14 2455.31 1550.21C2473.93 1594.9 2483.95 1626.49 2507.41 1670.11C2521.39 1688.34 2530.35 1698.82 2548.42 1713.03C2534.09 1720.53 2505.71 1724.11 2499.72 1734.39C2497.57 1747.54 2509.09 1761.15 2517.13 1770.83C2524.67 1777.05 2524.54 1774.97 2526.78 1782.73C2517.66 1797.67 2491.78 1797.07 2476.33 1795.11C2471.52 1796.88 2470.47 1797.95 2467.11 1801.75C2445.23 1826.53 2407.78 1843.63 2384.87 1861.32C2363.05 1878.05 2320.58 1895.08 2294.56 1904.74C2073.48 1986.85 1825.9 1952.35 1615.55 1853.25C1595.9 1845.9 1543.38 1814.98 1525.71 1801.57L1492 1778.88C1511.23 1758.35 1519.03 1745.77 1533.78 1722.07C1521.48 1719.64 1495.34 1717.39 1488.83 1707.35L1491.77 1700.67C1496.04 1695.04 1500.04 1689.23 1504.1 1683.45C1513.05 1670.23 1521.43 1658.05 1529.33 1644.1C1564.65 1574.25 1592.99 1485.34 1646.38 1427.35C1656.84 1414.64 1662.15 1408.49 1674.2 1397.47Z"/><path fill="#AAABA8" d="M1674.2 1397.47C1720.28 1350.26 1787.65 1313.93 1849.27 1291.08C1966.26 1247.71 2102.19 1249.59 2216.04 1303.08C2323.6 1347.26 2411.11 1444.14 2455.31 1550.21C2473.93 1594.9 2483.95 1626.49 2507.41 1670.11C2499.96 1672.91 2487.21 1657.03 2481.85 1650.78C2392.99 1547.17 2199.77 1368.39 2072.89 1514.35C2053.82 1536.3 2027.26 1611.42 1989.63 1575C1971.35 1557.3 1956 1532.05 1938.59 1512.44C1839.84 1401.23 1678.82 1504.61 1595.9 1582.85C1575.04 1602.5 1555.63 1627.94 1532.36 1643.44C1531.35 1643.66 1530.34 1643.88 1529.33 1644.1C1564.65 1574.25 1592.99 1485.34 1646.38 1427.35C1656.84 1414.64 1662.15 1408.49 1674.2 1397.47Z"/><path fill="#D2D2CF" d="M1674.2 1397.47C1720.28 1350.26 1787.65 1313.93 1849.27 1291.08C1966.26 1247.71 2102.19 1249.59 2216.04 1303.08L2214.53 1304.38C2209.51 1303.89 2205.21 1302.69 2200.32 1301.51L2198.28 1302.97L2216.45 1310.66C2215.27 1311.17 2131.36 1293.54 2118.99 1292.48L2067.5 1284.13C2055.44 1281.67 2032.4 1281.07 2019.33 1280.35C1998.39 1280.68 1974.25 1281.34 1953.54 1284.66C1938.05 1287.85 1921.19 1290.98 1906.04 1295.05C1894.24 1298.53 1868.73 1306.76 1857.18 1308.92C1807.24 1324.73 1728.84 1366.39 1688.61 1399.83C1675.44 1410.99 1663.06 1424.11 1646.38 1427.35C1656.84 1414.64 1662.15 1408.49 1674.2 1397.47Z"/><path fill="#686266" d="M1953.54 1284.66C1974.25 1281.34 1998.39 1280.68 2019.33 1280.35C2016.03 1299.43 2010.01 1368.36 1984.53 1365.61C1967.7 1353.73 1958.01 1304.88 1953.54 1284.66Z"/><path fill="#686266" d="M2067.5 1284.13L2118.99 1292.48C2115.73 1312.7 2102.52 1362.04 2078.09 1363.1C2054.51 1354.45 2065.04 1303.26 2067.5 1284.13Z"/><path fill="#686266" d="M1906.04 1295.05C1906.85 1315.15 1911.1 1347.36 1897.67 1362.25C1876.37 1370.05 1862.63 1324.07 1857.18 1308.92C1868.73 1306.76 1894.24 1298.53 1906.04 1295.05Z"/><path fill="#5C4D56" d="M1731.66 1534.65C1773.34 1513.45 1824.29 1494.88 1869.81 1511.84C1986.03 1555.14 1932.91 1698.16 1864.75 1753.43C1824.15 1801.19 1730.82 1828.91 1671.85 1843.63C1662.63 1845.09 1652.43 1846.96 1643.26 1848.13C1635.03 1849.03 1622.37 1849.52 1615.55 1853.25C1595.9 1845.9 1543.38 1814.98 1525.71 1801.57C1534.01 1790.37 1542.99 1774.57 1550.39 1762.33C1602.59 1673.94 1622.07 1601.68 1718.87 1542.29L1731.66 1534.65Z"/><path fill="#2F222C" d="M1731.66 1534.65C1773.34 1513.45 1824.29 1494.88 1869.81 1511.84C1986.03 1555.14 1932.91 1698.16 1864.75 1753.43L1865.51 1749.15C1869.81 1745.03 1871.86 1744.09 1873.07 1738.4L1866.03 1741.36L1863.84 1739.34C1846.37 1744.79 1834.56 1749.2 1815.76 1750.91C1730.18 1758.69 1687.24 1655.36 1746.18 1596.16C1762.7 1579.67 1785.11 1570.44 1808.45 1570.52C1880.34 1571.43 1897.89 1637.02 1896.85 1695.85C1916.59 1661.6 1929.74 1626.88 1918.91 1587.3C1898.5 1512.71 1810.21 1519.28 1752.6 1535.28C1742.65 1537.35 1741.44 1537.37 1731.66 1534.65Z"/><path fill="#FAFAF9" d="M1797.01 1592.72C1835.42 1586.13 1871.9 1611.92 1878.49 1650.33C1885.09 1688.74 1859.3 1725.22 1820.89 1731.82C1782.48 1738.41 1745.99 1712.62 1739.4 1674.21C1732.8 1635.8 1758.6 1599.31 1797.01 1592.72Z"/><path fill="#2F222C" d="M1816.43 1628.81C1832.89 1627.24 1846.62 1627.46 1859.5 1639.34C1867.36 1646.71 1872.02 1656.89 1872.44 1667.67C1873.85 1699.89 1849.46 1711.21 1821.43 1710.44C1804.48 1704.82 1800.83 1704.63 1792.7 1687.61C1788.11 1678.02 1784.33 1670.38 1787.93 1660.45L1792.16 1659.45C1806.84 1667.47 1819.26 1672.74 1825.52 1651.53C1824.63 1643.46 1820.23 1639.07 1815.33 1632.35L1816.43 1628.81Z"/><path fill="#949796" d="M1525.71 1801.57C1534.01 1790.37 1542.99 1774.57 1550.39 1762.33C1573.89 1784.31 1641.76 1835.62 1671.85 1843.63C1662.63 1845.09 1652.43 1846.96 1643.26 1848.13C1635.03 1849.03 1622.37 1849.52 1615.55 1853.25C1595.9 1845.9 1543.38 1814.98 1525.71 1801.57Z"/><path fill="#463842" d="M1718.87 1542.29L1731.66 1534.65C1741.44 1537.37 1742.65 1537.35 1752.6 1535.28C1742.79 1540.46 1735.78 1545.26 1724.84 1546.32L1718.87 1542.29Z"/><path fill="#5C4D56" d="M2104.64 1699.48C2105.05 1698.73 2108.86 1691.37 2108.7 1690.98C2052.65 1555.89 2145.58 1503 2266.29 1535.48C2272.37 1534.41 2275.99 1532.11 2284.06 1531.09C2292.38 1536.18 2298.04 1539.62 2305.82 1545.61C2380.27 1600.45 2415.6 1667.41 2447.08 1751.67C2451.61 1763.8 2461.02 1791.9 2473.91 1793.89L2476.33 1795.11C2471.52 1796.88 2470.47 1797.95 2467.11 1801.75C2445.23 1826.53 2407.78 1843.63 2384.87 1861.32C2378.46 1857.54 2370.71 1854.21 2363.88 1851.06C2273.51 1793.08 2176.08 1794.23 2104.64 1699.48Z"/><path fill="#463842" d="M2284.06 1531.09C2292.38 1536.18 2298.04 1539.62 2305.82 1545.61C2296.35 1549.3 2278.16 1539.67 2266.29 1535.48C2272.37 1534.41 2275.99 1532.11 2284.06 1531.09Z"/><path fill="#2F222C" d="M2206.93 1570.73C2223.75 1570.1 2240.69 1575.92 2254.66 1584.89C2313.93 1622.94 2299.5 1712.88 2239.04 1741.36C2230.05 1745.6 2220.83 1746.8 2211.17 1748.42C2090.45 1751.62 2093.44 1581.13 2206.93 1570.73Z"/><path fill="#FAFAF9" d="M2195.5 1590.31C2286.61 1586.2 2299.99 1707.1 2212.15 1730.92C2197.44 1732.32 2182.81 1730.16 2169.73 1723.05C2154.43 1714.81 2143.08 1700.78 2138.22 1684.11C2126.5 1642.71 2153.82 1600.12 2195.5 1590.31Z"/><path fill="#2F222C" d="M2170.42 1628.07C2179.86 1626.93 2184.31 1626.82 2192.96 1630.16L2193.72 1633.46C2186.81 1641.82 2181.46 1645.32 2182.95 1656.21C2195.04 1672 2202.61 1664.89 2218.05 1659.51L2220.63 1662.27C2221.54 1680.76 2218.45 1687.68 2206.12 1701.28C2184.93 1715.03 2156.91 1713.75 2144.26 1689.6C2138.77 1678.9 2137.99 1666.39 2142.13 1655.09C2147.6 1640.08 2156.77 1634.21 2170.42 1628.07Z"/><path fill="#D2D2CF" d="M1615.55 1853.25C1622.37 1849.52 1635.03 1849.03 1643.26 1848.13C1855.34 1928.95 2018.94 1942.48 2239.52 1882.99C2261.4 1877.09 2346.12 1849.12 2362.5 1852.34L2363.88 1851.06C2370.71 1854.21 2378.46 1857.54 2384.87 1861.32C2363.05 1878.05 2320.58 1895.08 2294.56 1904.74C2073.48 1986.85 1825.9 1952.35 1615.55 1853.25Z"/><path fill="#2F222C" d="M2104.64 1699.48C2013.23 1555.71 2147.41 1450.43 2284.06 1531.09C2275.99 1532.11 2272.37 1534.41 2266.29 1535.48C2145.58 1503 2052.65 1555.89 2108.7 1690.98C2108.86 1691.37 2105.05 1698.73 2104.64 1699.48Z"/><path fill="#D2D2CF" d="M1491.77 1700.67C1496.04 1695.04 1500.04 1689.23 1504.1 1683.45C1520.97 1684.82 1542.17 1681.98 1559.76 1681.66C1549.05 1691.85 1542.56 1698.19 1530.59 1706.67C1512.43 1708.75 1506.93 1710.91 1491.77 1700.67Z"/><path fill="#AAABA8" d="M2517.13 1770.83C2524.67 1777.05 2524.54 1774.97 2526.78 1782.73C2517.66 1797.67 2491.78 1797.07 2476.33 1795.11L2473.91 1793.89C2480.38 1789.29 2508.1 1775.66 2517.13 1770.83Z"/><path fill="#2F222C" d="M1991.41 1662.55C2007.9 1660.97 2035.88 1657.74 2045.62 1674.01C2051.04 1704.72 2011.43 1718.62 2015.94 1739.63C2050.22 1765.18 2120.15 1682.79 2119.01 1759.21C2118.24 1811.15 2073.44 1852.62 2029.17 1870.76C1957.33 1887.16 1915.87 1826.08 1901.7 1764.41C1898.87 1752.09 1900.07 1741.42 1907.2 1731.01C1926.64 1716.79 1987.01 1757.96 2001.18 1737.37C1999.91 1716.01 1959.67 1704.17 1973.66 1675.6C1977.84 1667.05 1982.81 1665.39 1991.41 1662.55Z"/><path fill="#E57884" d="M2010.4 1807.27C2019.3 1800.52 2029.23 1799.41 2040.24 1801.21C2048.57 1802.58 2056.01 1807.19 2060.95 1814.03C2082.13 1843.55 2031.62 1856.73 2010.87 1855.48L2005.86 1857.11C1995.91 1856.03 1983.2 1854.17 1974.42 1849.52C1945.23 1834.06 1968.71 1802.86 1992.81 1801C2000.27 1800.43 2002.98 1803.17 2007.95 1807.77L2008.36 1808.03L2010.4 1807.27Z"/><path fill="#E57884" d="M2005.86 1857.11C1995.91 1856.03 1983.2 1854.17 1974.42 1849.52C1945.23 1834.06 1968.71 1802.86 1992.81 1801C2000.27 1800.43 2002.98 1803.17 2007.95 1807.77L2008.36 1808.03L2010.4 1807.27C2012.77 1818.87 2011.54 1842.87 2010.87 1855.48L2005.86 1857.11Z"/><path fill="#843844" d="M2007.95 1807.77L2008.36 1808.03L2010.4 1807.27C2012.77 1818.87 2011.54 1842.87 2010.87 1855.48L2005.86 1857.11C2006.03 1842.49 2004.9 1821.15 2007.95 1807.77Z"/><path fill="#72BBC2" d="M2220.48 2346.67C2214.52 2346.9 2210.35 2347.81 2205.32 2344.85C2203.47 2338.39 2211.76 2312.88 2213.98 2304.51C2222.38 2272.55 2230.96 2240.64 2239.69 2208.77C2255.86 2149.91 2271.21 2090.48 2287.34 2031.65C2289.39 2024.19 2297.1 2005.16 2302.2 2000.9C2319.11 1986.8 2365.81 1992.29 2386.56 1993.69L2631.81 1997.05C2673.54 1997.59 2716.45 1997.26 2758.07 2000.18C2768.59 2000.91 2776.59 2008.69 2782.08 2017.22L2783.99 2019.96C2786.24 2026.98 2788.34 2034.48 2786.61 2041.87C2766.19 2129.1 2738.91 2215 2715.04 2301.4C2710.48 2317.9 2705.59 2334.62 2700.53 2350.91L2533.77 2349.69C2508.11 2349.56 2463.93 2350.62 2439.19 2348.4C2426.7 2349.41 2409.5 2348.7 2396.72 2348.43C2345.17 2347.38 2292.85 2348.69 2241.39 2346.71L2220.48 2346.67Z"/><path fill="#57ABB4" d="M2783.99 2019.96C2786.24 2026.98 2788.34 2034.48 2786.61 2041.87C2766.19 2129.1 2738.91 2215 2715.04 2301.4C2710.48 2317.9 2705.59 2334.62 2700.53 2350.91L2533.77 2349.69C2508.11 2349.56 2463.93 2350.62 2439.19 2348.4C2468.14 2345.74 2521.72 2347.51 2552.28 2347.61C2570.24 2333.1 2596.07 2325.06 2622.2 2301.8C2642.76 2283.55 2661.39 2263.23 2677.78 2241.16C2712.63 2194.67 2780.59 2077.18 2783.99 2019.96Z"/><path fill="#C5EAE9" d="M2220.48 2346.67C2214.52 2346.9 2210.35 2347.81 2205.32 2344.85C2203.47 2338.39 2211.76 2312.88 2213.98 2304.51C2222.38 2272.55 2230.96 2240.64 2239.69 2208.77C2255.86 2149.91 2271.21 2090.48 2287.34 2031.65C2289.39 2024.19 2297.1 2005.16 2302.2 2000.9C2319.11 1986.8 2365.81 1992.29 2386.56 1993.69C2372.1 1995.17 2343.81 1994.46 2328.3 1994.44C2328.43 2001.4 2325.84 2001.28 2325.72 2008.55C2331.04 2008.59 2342.36 2008.85 2347.36 2010.14C2338.88 2011.73 2331.4 2011.5 2322.79 2011.64C2312.97 2048.54 2305.07 2085.63 2295.81 2122.71C2276.56 2197.1 2258.42 2271.77 2241.39 2346.71L2220.48 2346.67Z"/><path fill="#72BBC2" d="M2220.48 2346.67C2214.52 2346.9 2210.35 2347.81 2205.32 2344.85C2203.47 2338.39 2211.76 2312.88 2213.98 2304.51C2222.38 2272.55 2230.96 2240.64 2239.69 2208.77C2255.86 2149.91 2271.21 2090.48 2287.34 2031.65C2289.39 2024.19 2297.1 2005.16 2302.2 2000.9C2319.11 1986.8 2365.81 1992.29 2386.56 1993.69C2372.1 1995.17 2343.81 1994.46 2328.3 1994.44L2325.48 1997.25C2318.07 2004.53 2305.45 2009.53 2302.52 2020.28C2273.19 2128 2249.82 2239.02 2220.48 2346.67Z"/><path fill="#EEF2EF" d="M2386.56 1993.69L2631.81 1997.05C2673.54 1997.59 2716.45 1997.26 2758.07 2000.18C2768.59 2000.91 2776.59 2008.69 2782.08 2017.22C2774.81 2021.66 2694.36 2017.86 2681.09 2017.61L2347.36 2010.14C2342.36 2008.85 2331.04 2008.59 2325.72 2008.55C2325.84 2001.28 2328.43 2001.4 2328.3 1994.44C2343.81 1994.46 2372.1 1995.17 2386.56 1993.69Z"/><path fill="#2F222C" d="M2547.99 2110.53C2550 2109.04 2552.04 2107.6 2554.11 2106.2C2602.69 2073.62 2617.2 2097.32 2600.73 2147.55C2603.99 2153.88 2634.9 2215.16 2635.01 2216.52L2629.69 2220.43C2626.42 2228.92 2634.43 2223.7 2633.23 2234.58C2625.76 2242.77 2608.22 2252.18 2597.97 2258.3C2582.6 2266.33 2570.63 2271.44 2553.65 2275.68C2502.51 2288.84 2448.23 2280.84 2403.06 2253.47C2394.51 2248.21 2379.75 2240.41 2377.43 2230.75C2379.47 2227.72 2380.39 2226.24 2382.27 2222.98C2378.31 2219.81 2378.24 2219.86 2375.28 2215.78C2376.25 2209.09 2408.21 2156.1 2413.54 2146.6C2406.49 2124.94 2399.3 2107.64 2417.16 2089.48C2437.01 2091.02 2447.49 2099.53 2462.69 2110.88C2492.02 2102.45 2518.53 2101.88 2547.99 2110.53Z"/><path fill="#AAABA8" d="M2393.07 2202.23C2405.91 2170.59 2423.19 2140.3 2454.72 2124.08C2482.72 2109.94 2515.29 2107.86 2544.88 2118.3C2587.6 2133.77 2599.87 2163.56 2617.35 2200.41C2627.75 2222.03 2617.25 2213.89 2622.16 2231.91L2617.71 2236.92C2606.43 2248.4 2590.07 2241.95 2589.97 2252.78C2580.19 2257.21 2571.3 2261.24 2561.01 2264.41C2513.42 2279.06 2461.98 2274.52 2417.69 2251.74C2409.15 2246.79 2404.29 2243.57 2394.84 2240.33C2390.31 2236.65 2390.04 2237.02 2388.03 2231.68L2391.75 2227.92C2393.5 2221.53 2393.53 2224.65 2391.5 2218.2L2386.15 2215.87C2386.62 2209.42 2388.82 2208.47 2393.07 2202.23Z"/><path fill="#EEF2EF" d="M2393.07 2202.23C2401.05 2196.94 2410.94 2183.34 2419.4 2176.1C2451.58 2148.52 2478.56 2148.79 2506.52 2181.46L2510.79 2178.35L2518.88 2190.49L2519.45 2196.02C2522.66 2207.74 2523.35 2211.02 2529.45 2221.81L2539.6 2229.67C2557.74 2241.15 2569.69 2245.62 2589.97 2252.78C2580.19 2257.21 2571.3 2261.24 2561.01 2264.41C2513.42 2279.06 2461.98 2274.52 2417.69 2251.74C2409.15 2246.79 2404.29 2243.57 2394.84 2240.33C2390.31 2236.65 2390.04 2237.02 2388.03 2231.68L2391.75 2227.92C2393.5 2221.53 2393.53 2224.65 2391.5 2218.2L2386.15 2215.87C2386.62 2209.42 2388.82 2208.47 2393.07 2202.23Z"/><path fill="#5C4D56" d="M2442.36 2172.62C2444.88 2180 2445.67 2181.67 2449.31 2188.62C2438.06 2209.68 2450.71 2230.52 2472.2 2219.07C2473.99 2219.86 2477.46 2221.23 2478.95 2222.22C2459.16 2239.07 2442.27 2244.99 2417.69 2251.74C2409.15 2246.79 2404.29 2243.57 2394.84 2240.33C2412.33 2210.93 2410.69 2196.94 2442.36 2172.62Z"/><path fill="#463842" d="M2442.36 2172.62C2488.07 2154.43 2507.75 2189.49 2478.95 2222.22C2477.46 2221.23 2473.99 2219.86 2472.2 2219.07C2450.71 2230.52 2438.06 2209.68 2449.31 2188.62C2445.67 2181.67 2444.88 2180 2442.36 2172.62Z"/><path fill="#FAFAF9" d="M2449.31 2188.62C2459.36 2185.08 2470.96 2187.34 2476.15 2197.24L2475.42 2202.07L2472.67 2204.09L2467.55 2200.11C2460.84 2201.79 2463.64 2200.06 2459.25 2206.08C2459.51 2213.45 2458.27 2210.36 2462.79 2215.83L2472.2 2219.07C2450.71 2230.52 2438.06 2209.68 2449.31 2188.62Z"/><path fill="#2F222C" d="M2522.39 2224.55C2528.45 2228.52 2526.45 2225.85 2528.52 2232.88C2527.18 2241.64 2525.11 2245.35 2519.03 2252.14C2508.4 2259.85 2506.2 2259.03 2494.02 2254.54C2487.63 2248.07 2479.78 2239.2 2486.05 2230.97C2497.48 2225.69 2498.17 2229.45 2509.03 2227.16L2512.81 2226.32L2522.39 2224.55Z"/><path fill="#843844" d="M2494.02 2254.54C2494.32 2251.46 2500.53 2233.75 2502.97 2231.58L2506.18 2234.04C2506.34 2238.33 2506.42 2242.61 2506.42 2246.9L2509.98 2248.73L2513.15 2246.87C2513.16 2241.4 2513.2 2238.55 2513.78 2233L2518.11 2231.18L2520.76 2232.82C2522.96 2239.98 2520.86 2244.74 2519.03 2252.14C2508.4 2259.85 2506.2 2259.03 2494.02 2254.54Z"/><path fill="#FAFAF9" d="M2519.45 2196.02C2522.66 2207.74 2523.35 2211.02 2529.45 2221.81L2522.39 2224.55L2512.81 2226.32C2507.6 2226.61 2507.87 2226.33 2502.57 2225.47L2504.59 2224.62C2509.66 2221.51 2509.36 2221.61 2513.12 2216.93C2513.7 2205.99 2512.97 2204.03 2519.45 2196.02Z"/><path fill="#5C4D56" d="M2518.88 2190.49C2525.47 2170.45 2539.96 2161.91 2560.47 2168.02C2597.75 2186.12 2599.55 2218.72 2617.71 2236.92C2606.43 2248.4 2590.07 2241.95 2589.97 2252.78C2569.69 2245.62 2557.74 2241.15 2539.6 2229.67L2529.45 2221.81C2523.35 2211.02 2522.66 2207.74 2519.45 2196.02L2518.88 2190.49Z"/><path fill="#463842" d="M2518.88 2190.49C2525.47 2170.45 2539.96 2161.91 2560.47 2168.02C2555.35 2183.75 2563.18 2180.43 2560.05 2188.1C2569.62 2208.34 2568.77 2223.1 2542.19 2223.58L2539.6 2229.67L2529.45 2221.81C2523.35 2211.02 2522.66 2207.74 2519.45 2196.02L2518.88 2190.49Z"/><path fill="#FAFAF9" d="M2542.19 2223.58L2540.79 2219.55C2542.86 2209.82 2544.79 2219.22 2551.92 2208.64C2550.02 2203.85 2542.5 2201.93 2535.68 2197.59L2535.61 2194.29C2545.74 2186.51 2547.37 2186.69 2560.05 2188.1C2569.62 2208.34 2568.77 2223.1 2542.19 2223.58Z"/><path fill="#FAFAF9" d="M2510.79 2178.35C2554.92 2116.87 2589.66 2191.05 2617.35 2200.41C2627.75 2222.03 2617.25 2213.89 2622.16 2231.91L2617.71 2236.92C2599.55 2218.72 2597.75 2186.12 2560.47 2168.02C2539.96 2161.91 2525.47 2170.45 2518.88 2190.49L2510.79 2178.35Z"/><path fill="#72BBC2" d="M2582.95 2099.67C2587.91 2099.43 2589.01 2099.86 2593.96 2100.79C2605.04 2111.37 2601.13 2126.91 2592.6 2137.97L2591.2 2136.48C2592.44 2127.61 2593.93 2119.48 2595.56 2110.71L2591.44 2107.19C2583.45 2106.37 2570.47 2113.74 2559.46 2117.06L2559.43 2115.43C2568.85 2106.36 2571.52 2105.3 2582.95 2099.67Z"/><path fill="#C5EAE9" d="M2421.55 2098.29C2430.35 2099.91 2451.49 2107.65 2451.27 2117.9C2437.42 2114.25 2441.09 2106.81 2419.69 2104.35C2419.12 2119.74 2422.97 2125.34 2422.74 2134.83C2412.49 2124.98 2410.26 2108.37 2421.55 2098.29Z"/><path fill="#AAABA8" d="M1768.01 1942.59C1863.25 1974.21 2010.62 1989.18 2110.82 1980.99C2146.09 1978.11 2185.95 1969.46 2220.61 1961.66C2231.41 1971.02 2239.51 1979.21 2247.5 1991.06C2225.25 1989.6 2205.37 2017.08 2185.54 2027.2C2170.93 2034.67 2153.25 2038.1 2137.34 2041.94C2133.23 2046.78 2134.89 2047.02 2135.53 2055.76L2135.42 2079.51C2121.49 2100.65 2105.57 2122.14 2084.38 2136.65L2078.34 2131.26C2068.91 2134.84 2068.61 2151.45 2060.33 2160.26C2050.02 2162.8 2044.41 2157.62 2037.73 2149.95C2032.55 2159.07 2030.77 2166.92 2027.77 2176.93C1975.96 2138.03 1943.43 2091.94 1916.19 2033.81C1912.01 2026.71 1912.28 2027.07 1905.43 2022.45C1899.05 2022.16 1902.21 2021.55 1896.02 2025.82C1883.83 2046.49 1899.82 2068.09 1909.61 2085.89C1938.59 2138.63 1974.78 2175.59 2021.39 2212.78C2008.11 2230.65 1991.46 2260.65 1979.8 2280.72C1910.16 2256.3 1849.47 2225.42 1801.32 2169.22C1793.26 2159.81 1780.69 2145.08 1770.21 2138.84C1757.69 2137.63 1755.14 2143.34 1753.81 2154.88C1801.31 2232.77 1921.22 2301.08 2008.24 2320.64C2032.28 2326.04 2057.18 2330.15 2081.66 2333.37C2087.61 2339.84 2088.18 2341.05 2095.86 2344.77C2066.9 2345.41 2016.16 2347.55 1987.95 2344.05C1944.71 2343.96 1910.28 2335.22 1879.29 2370.04C1835.81 2370.52 1783.19 2373.42 1739.89 2376.96C1728.34 2380.05 1682.28 2382.38 1668.51 2383.74C1667.09 2370.16 1666.34 2355.58 1665.41 2341.88C1663.41 2329.12 1664.81 2291.35 1665.64 2276.93C1672.69 2154.53 1706.93 2048.1 1768.01 1942.59Z"/><defs><linearGradient id="gradient_0" gradientUnits="userSpaceOnUse" x1="1857.7554" y1="2307.3821" x2="1975.7686" y2="2207.7722"><stop offset="0" stop-color="#909697"/><stop offset="1" stop-color="#9DB3AB"/></linearGradient></defs><path fill="url(#gradient_0)" d="M1753.81 2154.88C1801.31 2232.77 1921.22 2301.08 2008.24 2320.64C2032.28 2326.04 2057.18 2330.15 2081.66 2333.37C2087.61 2339.84 2088.18 2341.05 2095.86 2344.77C2066.9 2345.41 2016.16 2347.55 1987.95 2344.05C1983.45 2339.89 1986.09 2341.58 1977.36 2341.76C1961.98 2333.26 1940.58 2325.67 1923.92 2318.9C1862.53 2293.98 1754.69 2231.23 1753.81 2154.88Z"/><path fill="#949796" d="M1916.19 2033.81C1921.1 2034.15 1925.01 2033.53 1928.75 2037.38C1963.65 2073.33 1996.92 2109.79 2034.89 2142.77C2037.3 2144.87 2037.41 2147.1 2037.73 2149.95C2032.55 2159.07 2030.77 2166.92 2027.77 2176.93C1975.96 2138.03 1943.43 2091.94 1916.19 2033.81Z"/><path fill="#686266" d="M1665.41 2341.88C1682.58 2353.56 1719.33 2370.35 1739.89 2376.96C1728.34 2380.05 1682.28 2382.38 1668.51 2383.74C1667.09 2370.16 1666.34 2355.58 1665.41 2341.88Z"/><path fill="#5C4D56" d="M1212.16 2082.49C1213.52 2064.7 1216.26 2050.36 1222.65 2033.72C1248 1967.82 1336.26 1920.04 1404.09 1947.38C1437.54 1954.96 1460.55 1980.64 1479.92 2007.32C1498.59 2036.93 1501.42 2060.05 1511.12 2091.54C1518.93 2107.15 1524.73 2117.41 1536.84 2130.48C1553.04 2139.8 1605.73 2181 1624.09 2184.22C1631.8 2188.06 1638.72 2190.33 1643.4 2197.22L1643.12 2202.01C1632.97 2245.8 1637.74 2340.64 1640.75 2386.65C1621.79 2388.85 1583.76 2392.11 1566.49 2395.62C1549.38 2396.72 1505.54 2402.8 1492.38 2401.21C1450.84 2393.16 1404.3 2385.34 1367.73 2363.84C1331.06 2338.49 1318.83 2325.93 1290.41 2292.21C1260.7 2260.33 1235.11 2207.17 1220.52 2166.42C1212.68 2134.5 1210.69 2115.06 1212.16 2082.49Z"/><path fill="#5C4D56" d="M1536.84 2130.48C1553.04 2139.8 1605.73 2181 1624.09 2184.22C1631.8 2188.06 1638.72 2190.33 1643.4 2197.22L1643.12 2202.01C1632.97 2245.8 1637.74 2340.64 1640.75 2386.65C1621.79 2388.85 1583.76 2392.11 1566.49 2395.62C1549.38 2396.72 1505.54 2402.8 1492.38 2401.21C1450.84 2393.16 1404.3 2385.34 1367.73 2363.84C1372.98 2353.55 1382.1 2318.85 1388.04 2304.3C1417.03 2231.49 1469.37 2170.35 1536.84 2130.48Z"/><path fill="#AAABA8" d="M1492.38 2401.21C1490.84 2322.16 1540.79 2204.24 1624.09 2184.22C1631.8 2188.06 1638.72 2190.33 1643.4 2197.22L1643.12 2202.01C1632.97 2245.8 1637.74 2340.64 1640.75 2386.65C1621.79 2388.85 1583.76 2392.11 1566.49 2395.62C1549.38 2396.72 1505.54 2402.8 1492.38 2401.21Z"/><path fill="#5C4D56" d="M1643.12 2202.01C1632.97 2245.8 1637.74 2340.64 1640.75 2386.65C1621.79 2388.85 1583.76 2392.11 1566.49 2395.62C1569.97 2390.84 1570.74 2366.88 1571.45 2359.5C1577.85 2293.23 1596.47 2248.72 1643.12 2202.01Z"/><path fill="#AAABA8" d="M1212.16 2082.49C1213.52 2064.7 1216.26 2050.36 1222.65 2033.72C1248 1967.82 1336.26 1920.04 1404.09 1947.38C1437.54 1954.96 1460.55 1980.64 1479.92 2007.32C1392.89 2025.5 1327.24 2062.66 1262.41 2123.7C1252.77 2132.77 1227.02 2164.33 1220.52 2166.42C1212.68 2134.5 1210.69 2115.06 1212.16 2082.49Z"/><path fill="#5C4D56" d="M1212.16 2082.49C1213.52 2064.7 1216.26 2050.36 1222.65 2033.72C1248 1967.82 1336.26 1920.04 1404.09 1947.38C1338.82 1963.33 1243.55 2022.36 1212.16 2082.49Z"/><path fill="#AAABA8" d="M1290.41 2292.21C1301.87 2271.08 1312.52 2255.03 1325.14 2235.1C1357.33 2184.25 1451.23 2102.34 1511.12 2091.54C1518.93 2107.15 1524.73 2117.41 1536.84 2130.48C1469.37 2170.35 1417.03 2231.49 1388.04 2304.3C1382.1 2318.85 1372.98 2353.55 1367.73 2363.84C1331.06 2338.49 1318.83 2325.93 1290.41 2292.21Z"/><path fill="#72BBC2" d="M2174.73 2382.43L2171.79 2378.85L2172.47 2376.31C2177.92 2374.36 2187.73 2375.69 2194.01 2376.11C2305.13 2378.13 2416.27 2379.31 2527.41 2379.65C2582.01 2379.78 2636.95 2379.02 2691.46 2380.64C2723.52 2381.59 2720.13 2430.67 2685.96 2431.68C2660.12 2432.45 2634.06 2432.63 2608.16 2432.59L2464.62 2432.01C2371.16 2431.58 2259.86 2434.52 2167.96 2430.97C2177.31 2415.44 2181.04 2407.76 2176.54 2389.23C2175.98 2386.96 2175.37 2384.69 2174.73 2382.43Z"/><path fill="#C5EAE9" d="M2174.73 2382.43L2171.79 2378.85L2172.47 2376.31C2177.92 2374.36 2187.73 2375.69 2194.01 2376.11C2225.06 2394.32 2208.81 2437.73 2188.09 2420.79C2188.65 2401.48 2190.55 2395.85 2174.73 2382.43Z"/><path fill="#57ABB4" d="M1916.86 2373.97C1923.35 2373.32 1949.54 2372.79 1955.26 2373.47C1981.37 2376.59 2129.04 2368.42 2141.86 2379.14C2146.64 2383.06 2149.58 2388.78 2150 2394.94C2151.13 2409.32 2145.04 2419.33 2136.46 2429.76C2091.31 2428.48 2046.14 2427.91 2000.97 2428.06C1977.3 2427.99 1948.37 2429.49 1925.34 2426.3C1893.29 2421.87 1898.62 2391.93 1916.86 2373.97Z"/><path fill="#AAABA8" d="M2230.22 1282.11L2225.78 1278.69C2228.12 1272.11 2253.06 1250.25 2259.76 1245.07C2288.88 1222.56 2322.42 1198.84 2360.34 1196.25C2392.78 1194.04 2407.82 1217.55 2408.36 1247.45C2410.98 1261.52 2407.54 1290.78 2403.44 1304.43C2401.22 1326.54 2387.08 1362.55 2375.8 1381.68C2365.08 1371.78 2354.06 1364.26 2342.22 1355.77C2347.11 1349.84 2351.74 1343.72 2356.12 1337.41C2432.84 1228.32 2336.46 1188.57 2265.74 1300.82C2257.47 1295.5 2239.61 1286.93 2230.22 1282.11Z"/><path fill="#EEF2EF" d="M2230.22 1282.11L2225.78 1278.69C2228.12 1272.11 2253.06 1250.25 2259.76 1245.07C2288.88 1222.56 2322.42 1198.84 2360.34 1196.25C2392.78 1194.04 2407.82 1217.55 2408.36 1247.45L2406.92 1246.42C2402.93 1237.93 2400.01 1234.84 2394.21 1227.55C2327.96 1178.3 2252.8 1279.81 2230.22 1282.11Z"/><path fill="#D2D2CF" d="M2394.21 1227.55C2400.01 1234.84 2402.93 1237.93 2406.92 1246.42L2408.36 1247.45C2410.98 1261.52 2407.54 1290.78 2403.44 1304.43C2401.84 1302.08 2399.48 1298.93 2399.42 1295.99C2398.87 1268.14 2401.61 1255.14 2394.21 1227.55Z"/><path fill="#AAABA8" d="M1632.85 1220C1666.2 1173.32 1777.16 1248.05 1795.32 1280.05C1792.17 1284.08 1792.14 1283.83 1787.73 1286.56C1781.47 1287.42 1759.88 1299.17 1753.27 1302.58C1678.29 1186.52 1609.12 1233.06 1670.18 1362.2L1644.51 1383.55C1620.06 1336.08 1601.9 1268.69 1632.85 1220Z"/><defs><linearGradient id="gradient_1" gradientUnits="userSpaceOnUse" x1="1712.2749" y1="1259.2499" x2="1722.6229" y2="1219.6652"><stop offset="0" stop-color="#BBBAB4"/><stop offset="1" stop-color="#D8E5DE"/></linearGradient></defs><path fill="url(#gradient_1)" d="M1632.85 1220C1666.2 1173.32 1777.16 1248.05 1795.32 1280.05C1792.17 1284.08 1792.14 1283.83 1787.73 1286.56C1769.05 1250.05 1683.44 1211.29 1643.32 1225.83C1639.95 1227.05 1640.03 1227.61 1635.92 1228.39L1632.85 1220Z"/><path fill="#949796" d="M2135.53 2055.76C2134.89 2047.02 2133.23 2046.78 2137.34 2041.94C2153.25 2038.1 2170.93 2034.67 2185.54 2027.2C2205.37 2017.08 2225.25 1989.6 2247.5 1991.06C2252.82 1998.53 2253.97 2000.9 2257.96 2009.28C2254.9 2033.1 2238.38 2103.97 2230.53 2127.26C2206.18 2143.26 2196.45 2149.51 2169.83 2160.05L2165.98 2091.51C2215.39 2074.58 2221.59 2072.49 2235.25 2021.81C2215.28 2037.38 2180.78 2065.86 2155.22 2065.67C2148.01 2061.35 2145.58 2053.9 2140.53 2046.23L2138.12 2047.8L2137.17 2055.34L2135.53 2055.76Z"/><path fill="#686266" d="M2021.39 2212.78C2073.08 2242.85 2133.43 2273.02 2182.85 2305.7C2110.96 2310.8 2048.4 2304.42 1979.8 2280.72C1991.46 2260.65 2008.11 2230.65 2021.39 2212.78Z"/><path fill="#AAABA8" d="M2135.53 2055.76L2137.17 2055.34C2137.54 2083.95 2140.42 2165.72 2136.23 2190.11C2136.2 2209.56 2135.25 2224.69 2133.73 2244C2120.36 2237.28 2109.26 2231.06 2096.31 2223.5C2094.43 2207.15 2093.32 2189.69 2091.99 2173.2C2089.92 2157.8 2088.71 2151.54 2084.38 2136.65C2105.57 2122.14 2121.49 2100.65 2135.42 2079.51L2135.53 2055.76Z"/><path fill="#949796" d="M2135.53 2055.76L2137.17 2055.34C2137.54 2083.95 2140.42 2165.72 2136.23 2190.11C2134.7 2171.08 2136.04 2134.81 2136.24 2114.74C2122.17 2141.86 2114.62 2152.73 2091.99 2173.2C2089.92 2157.8 2088.71 2151.54 2084.38 2136.65C2105.57 2122.14 2121.49 2100.65 2135.42 2079.51L2135.53 2055.76Z"/><path fill="#FAFAF9" d="M2217.65 2159.9L2220.92 2160.56C2217.08 2175.5 2194.16 2274.11 2186.55 2280.68L2182.46 2278.21L2167.98 2267.55C2168.4 2238.79 2168.58 2210.03 2168.54 2181.26C2187.87 2174.23 2199.47 2169.36 2217.65 2159.9Z"/><path fill="#686266" d="M2348.97 1258C2358.62 1257.86 2359.28 1257.34 2363.82 1265.07C2365.83 1286.84 2338.68 1325.71 2326.18 1343.45L2308.49 1331.59C2299.48 1325.68 2291.59 1319.49 2283.07 1312.95C2302.25 1284.1 2316.77 1271.16 2348.97 1258Z"/><path fill="#686266" d="M1668.43 1262.65C1700.44 1271.33 1713.61 1291.4 1732.07 1317.14L1714.33 1329L1687.97 1347.69C1673.05 1317.55 1666.3 1296.15 1668.43 1262.65Z"/><path fill="#C5EAE9" d="M2081.66 2333.37C2123.84 2337.48 2134.74 2334.6 2174.33 2333.03L2175.84 2334.99C2174.9 2337.9 2173.45 2344.77 2171.51 2344.77C2149.75 2344.78 2116.68 2343.82 2095.86 2344.77C2088.18 2341.05 2087.61 2339.84 2081.66 2333.37Z"/><path fill="#686266" d="M2065.26 2186.83C2066.35 2186.67 2067.39 2187.42 2068.42 2187.8C2070.44 2196.44 2072.11 2196.87 2069.56 2203.64C2063.4 2204.3 2064.71 2203.6 2058.19 2199.75C2053.39 2197.38 2052.48 2196.77 2048.15 2193.6L2049.25 2191.01L2065.26 2186.83Z"/></svg>